Coordinates
version=1
nRows=4
nColumns=124
inDegrees=yes

Units are S.I. units (second, meters, Newtons, ...)
If the header above contains a line with 'inDegrees', this indicates whether rotational values are in degrees (yes) or radians (no).

endheader 
time	pelvis_tilt	pelvis_list	pelvis_rotation	pelvis_tx	pelvis_ty	pelvis_tz	hip_flexion_l	hip_adduction_l	hip_rotation_l	hip_flexion_r	hip_adduction_r	hip_rotation_r	knee_angle_l	knee_angle_r	ankle_angle_l	ankle_angle_r	subtalar_angle_l	subtalar_angle_r	mtp_angle_l	mtp_angle_r	lumbar_extension	lumbar_bending	lumbar_rotation	arm_flex_l	arm_add_l	arm_rot_l	arm_flex_r	arm_add_r	arm_rot_r	elbow_flex_l	elbow_flex_r	glut_med1_l/activation	glut_med2_l/activation	glut_med3_l/activation	glut_min1_l/activation	glut_min2_l/activation	glut_min3_l/activation	semimem_l/activation	semiten_l/activation	bifemlh_l/activation	bifemsh_l/activation	sar_l/activation	add_long_l/activation	add_brev_l/activation	add_mag1_l/activation	add_mag2_l/activation	add_mag3_l/activation	tfl_l/activation	pect_l/activation	grac_l/activation	glut_max1_l/activation	glut_max2_l/activation	glut_max3_l/activation	iliacus_l/activation	psoas_l/activation	quad_fem_l/activation	gem_l/activation	peri_l/activation	rect_fem_l/activation	vas_med_l/activation	vas_int_l/activation	vas_lat_l/activation	med_gas_l/activation	lat_gas_l/activation	soleus_l/activation	tib_post_l/activation	flex_dig_l/activation	flex_hal_l/activation	tib_ant_l/activation	per_brev_l/activation	per_long_l/activation	per_tert_l/activation	ext_dig_l/activation	ext_hal_l/activation	ercspn_l/activation	intobl_l/activation	extobl_l/activation	glut_med1_r/activation	glut_med2_r/activation	glut_med3_r/activation	glut_min1_r/activation	glut_min2_r/activation	glut_min3_r/activation	semimem_r/activation	semiten_r/activation	bifemlh_r/activation	bifemsh_r/activation	sar_r/activation	add_long_r/activation	add_brev_r/activation	add_mag1_r/activation	add_mag2_r/activation	add_mag3_r/activation	tfl_r/activation	pect_r/activation	grac_r/activation	glut_max1_r/activation	glut_max2_r/activation	glut_max3_r/activation	iliacus_r/activation	psoas_r/activation	quad_fem_r/activation	gem_r/activation	peri_r/activation	rect_fem_r/activation	vas_med_r/activation	vas_int_r/activation	vas_lat_r/activation	med_gas_r/activation	lat_gas_r/activation	soleus_r/activation	tib_post_r/activation	flex_dig_r/activation	flex_hal_r/activation	tib_ant_r/activation	per_brev_r/activation	per_long_r/activation	per_tert_r/activation	ext_dig_r/activation	ext_hal_r/activation	ercspn_r/activation	intobl_r/activation	extobl_r/activation	
          0.36378658	          4.33177475	         -3.77097890	         -7.55758509	          0.23844676	          1.01240513	         -0.01043213	         10.12585032	         -3.68289040	         -5.35244258	         -3.01263426	          6.75697658	          7.19423198	        -54.22611288	        -20.30646425	         19.67381461	         10.48394306	         -5.21438489	        -11.20741479	          1.42496121	         21.84095446	         -7.76978041	         14.41560045	         -0.18017220	          4.46552836	        -13.46359313	         10.07704799	        -34.74408231	        -13.47258706	          9.05733989	        112.39809224	          2.50193100	          0.49095951	          0.36604106	          0.39291945	          0.54109601	          0.52256836	          0.50476335	          0.34263508	          0.06602168	          0.27636138	          0.58844220	          0.57841746	          0.27686828	          0.50199716	          0.50119124	          0.48578147	          0.37509353	          0.66734327	          0.56347816	          0.50890712	          0.45968112	          0.36490051	          0.30447346	          0.36153523	          0.43290474	          0.25179669	          0.42465327	          0.43278678	          0.53036360	          0.05023898	          0.05021242	          0.07135900	          0.20843094	          0.31186361	          0.11597678	          0.48754747	          0.49686249	          0.44067955	          0.62951329	          0.29099778	          0.17799060	          0.63300134	          0.69658490	          0.70234697	          0.16801396	          0.41729449	          0.20226017	          0.99931033	          0.90119816	          0.47145564	          0.92732797	          0.85610421	          0.56759936	          0.40544621	          0.07519214	          0.33932125	          0.43720652	          0.57847241	          0.05002084	          0.05029538	          0.48750944	          0.50700204	          0.48150094	          0.89422081	          0.42180630	          0.13466300	          0.50916913	          0.45397551	          0.37600771	          0.82636897	          0.78662389	          0.05004334	          0.05844104	          0.28090786	          0.50613079	          0.30451485	          0.32384041	          0.27035175	          0.35459085	          0.46954940	          0.30348452	          0.68710912	          0.54085724	          0.53847657	          0.50898974	          0.36179856	          0.27879964	          0.48531990	          0.42840925	          0.50834381	          0.05000373	          0.05010301	          0.05000872	
          0.39410213	          4.30809643	         -3.56873016	         -8.36738958	          0.25217247	          1.01142517	         -0.00869663	         13.91778253	         -3.68397848	         -3.77171654	         -3.78179839	          6.28685436	          7.48855530	        -53.89238615	        -20.41901383	         20.31002907	         11.07124678	         -5.97540871	        -10.42122229	          0.92722843	         22.57529589	         -8.31294617	         14.28682125	         -0.36382239	          7.75345634	        -13.46438395	          8.86587300	        -34.72286430	        -13.58693552	          7.75478005	        114.47418883	          0.96059279	          0.50899637	          0.43119125	          0.43495409	          0.54598726	          0.53971471	          0.52191696	          0.22774495	          0.05012628	          0.18370846	          0.62674046	          0.60851326	          0.30290221	          0.42302353	          0.47865875	          0.46181687	          0.33736258	          0.64985264	          0.55585720	          0.45916336	          0.46132118	          0.35155370	          0.26927344	          0.35370140	          0.42142026	          0.23922400	          0.46048235	          0.48650324	          0.35264084	          0.06695271	          0.06265123	          0.07244986	          0.22383880	          0.32368163	          0.11054110	          0.49917896	          0.50183131	          0.45618944	          0.64234257	          0.30808964	          0.20666616	          0.64006643	          0.69995523	          0.70417891	          0.17694791	          0.38133253	          0.19811873	          0.99931106	          0.89568006	          0.47512574	          0.91726256	          0.84937957	          0.56633227	          0.40392201	          0.05076917	          0.32639113	          0.44462396	          0.59894442	          0.05003129	          0.05034176	          0.48712804	          0.50574963	          0.47886848	          0.89182154	          0.43390667	          0.14808620	          0.50838020	          0.45304853	          0.37728278	          0.86791289	          0.82914557	          0.05007119	          0.10758381	          0.29368407	          0.52405153	          0.29978091	          0.31845403	          0.26121375	          0.35850915	          0.47208721	          0.30208133	          0.67879290	          0.53323294	          0.53083967	          0.51558298	          0.37041347	          0.28372480	          0.49321791	          0.45109134	          0.50841521	          0.05000613	          0.05008141	          0.05000552	
          0.42441768	          4.25645404	         -3.54182055	         -9.14935936	          0.26584367	          1.00971541	         -0.00671336	         17.71384931	         -3.96163357	         -2.19042891	         -4.47125271	          6.01727860	          7.71763391	        -52.87640814	        -20.66957723	         20.02647152	         11.72145817	         -7.01462137	         -9.68679119	          0.61186688	         23.26872499	         -8.86558026	         14.11268283	         -0.49082263	         10.86620524	        -13.46469129	          7.41909986	        -34.15259885	        -13.87012183	          6.16901045	        115.11396134	          0.20144469	          0.52059175	          0.50487612	          0.48760063	          0.55561863	          0.55966230	          0.53914414	          0.15134596	          0.05014303	          0.12209257	          0.60419671	          0.62786630	          0.33688278	          0.35424116	          0.44895265	          0.43104242	          0.29973222	          0.63802149	          0.54536601	          0.38843833	          0.47478964	          0.35318593	          0.24419834	          0.37854273	          0.43476817	          0.24829439	          0.48882186	          0.56130788	          0.23454631	          0.08769878	          0.08379833	          0.07455888	          0.23452964	          0.33935602	          0.12804999	          0.51133953	          0.50247122	          0.47000116	          0.62918470	          0.32628945	          0.22414310	          0.60727031	          0.70051558	          0.67965816	          0.17779377	          0.34774342	          0.18963848	          0.99922766	          0.87929801	          0.47511918	          0.89901433	          0.83291584	          0.56224204	          0.40687484	          0.05035428	          0.31996555	          0.44757365	          0.60492954	          0.05007592	          0.05015171	          0.49048404	          0.50680940	          0.47941349	          0.88720305	          0.44836725	          0.17372207	          0.50641633	          0.45140270	          0.38316172	          0.90239599	          0.86400616	          0.05013416	          0.15874891	          0.30678673	          0.54067375	          0.29459007	          0.31419546	          0.25520127	          0.35410780	          0.47134430	          0.29332201	          0.67109972	          0.52705143	          0.52242494	          0.54326124	          0.38485537	          0.28402573	          0.50496793	          0.48436819	          0.51487798	          0.05000386	          0.05010021	          0.05000758	
          0.45473323	          4.16360288	         -3.65829397	         -9.93786701	          0.27993404	          1.00725532	         -0.00455705	         21.30594135	         -4.46154044	         -0.66328684	         -5.07716039	          5.89950885	          7.89097426	        -51.14862655	        -21.09663967	         18.70224203	         12.45617153	         -8.18461018	         -8.95794404	          0.42157806	         23.95422918	         -9.35609410	         13.90672074	         -0.58938150	         13.57016940	        -13.46405451	          5.73756713	        -33.01430007	        -14.30595498	          4.53160501	        114.37969588	          0.00225136	          0.50525397	          0.54328728	          0.52762583	          0.55851145	          0.56920689	          0.54615316	          0.10055718	          0.05011654	          0.08113277	          0.54930934	          0.64093067	          0.35012891	          0.29659688	          0.41959970	          0.40030478	          0.26888317	          0.63183008	          0.53486070	          0.32049861	          0.49475670	          0.37370640	          0.23539804	          0.42367138	          0.46789224	          0.27022384	          0.51814784	          0.60977549	          0.16078787	          0.10119405	          0.09687787	          0.07692047	          0.25255255	          0.36545527	          0.15338912	          0.53260197	          0.50714145	          0.48624820	          0.60041035	          0.34350914	          0.23462516	          0.58234968	          0.67913552	          0.64455876	          0.17054024	          0.33034654	          0.18832481	          0.99917321	          0.85647200	          0.48180836	          0.87222008	          0.81161239	          0.56186616	          0.41264207	          0.05063573	          0.31579701	          0.44339536	          0.60331304	          0.05010196	          0.08293847	          0.49485623	          0.50910239	          0.48210333	          0.88615864	          0.45998175	          0.20646487	          0.50622095	          0.45385039	          0.39614555	          0.93449885	          0.90108272	          0.05018292	          0.21695861	          0.31725797	          0.55941815	          0.29511941	          0.31654981	          0.25555367	          0.34223530	          0.46702584	          0.28168512	          0.66526806	          0.52383509	          0.51389684	          0.58941769	          0.39597065	          0.28153360	          0.51830160	          0.52280168	          0.53068099	          0.05000556	          0.05010736	          0.05000632	
